<?xml version="1.0" encoding="UTF-8" standalone="no"?>
<!DOCTYPE svg PUBLIC "-//W3C//DTD SVG 1.1//EN"
 "http://www.w3.org/Graphics/SVG/1.1/DTD/svg11.dtd">
<!-- Generated by graphviz version 2.26.3 (20100126.1600)
 -->
<!-- Title: G Pages: 1 -->
<svg width="144pt" height="476pt"
 viewBox="0.00 0.00 144.00 476.00" xmlns="http://www.w3.org/2000/svg" xmlns:xlink="http://www.w3.org/1999/xlink">
<g id="graph1" class="graph" transform="scale(1 1) rotate(0) translate(4 472)">
<title>G</title>
<polygon fill="white" stroke="white" points="-4,5 -4,-472 141,-472 141,5 -4,5"/>
<g id="graph2" class="cluster"><title>cluster_global</title>
<polyline fill="none" stroke="gray" points="20,-8 116,-8 "/>
<path fill="none" stroke="gray" d="M116,-8C122,-8 128,-14 128,-20"/>
<polyline fill="none" stroke="gray" points="128,-20 128,-448 "/>
<path fill="none" stroke="gray" d="M128,-448C128,-454 122,-460 116,-460"/>
<polyline fill="none" stroke="gray" points="116,-460 20,-460 "/>
<path fill="none" stroke="gray" d="M20,-460C14,-460 8,-454 8,-448"/>
<polyline fill="none" stroke="gray" points="8,-448 8,-20 "/>
<path fill="none" stroke="gray" d="M8,-20C8,-14 14,-8 20,-8"/>
<text text-anchor="middle" x="68" y="-446.1" font-family="Times Roman,serif" font-size="11.00" fill="gray">global</text>
</g>
<!-- \\session -->
<g id="node2" class="node"><title>\\session</title>
<a xlink:href="core.classes.session.class.html" xlink:title="session" target="_parent">
<polygon fill="none" stroke="black" points="100,-430 36,-430 36,-394 100,-394 100,-430"/>
<text text-anchor="middle" x="68" y="-409.1" font-family="Courier,monospace" font-size="11.00">session</text>
</a>
</g>
<!-- \\user -->
<g id="node3" class="node"><title>\\user</title>
<a xlink:href="core.classes.user.class.html" xlink:title="user" target="_parent">
<polygon fill="none" stroke="black" points="95,-376 41,-376 41,-340 95,-340 95,-376"/>
<text text-anchor="middle" x="68" y="-355.1" font-family="Courier,monospace" font-size="11.00">user</text>
</a>
</g>
<!-- \\configuration -->
<g id="node4" class="node"><title>\\configuration</title>
<a xlink:href="core.classes.configuration.class.html" xlink:title="configuration" target="_parent">
<polygon fill="none" stroke="black" points="120,-322 16,-322 16,-286 120,-286 120,-322"/>
<text text-anchor="middle" x="68" y="-301.1" font-family="Courier,monospace" font-size="11.00">configuration</text>
</a>
</g>
<!-- \\tinystats -->
<g id="node5" class="node"><title>\\tinystats</title>
<a xlink:href="core.classes.tinystats.class.html" xlink:title="tinystats" target="_parent">
<polygon fill="none" stroke="black" points="106,-268 30,-268 30,-232 106,-232 106,-268"/>
<text text-anchor="middle" x="68" y="-247.1" font-family="Courier,monospace" font-size="11.00">tinystats</text>
</a>
</g>
<!-- \\redis -->
<g id="node6" class="node"><title>\\redis</title>
<a xlink:href="core.classes.redis.class.html" xlink:title="redis" target="_parent">
<polygon fill="none" stroke="black" points="95,-214 41,-214 41,-178 95,-178 95,-214"/>
<text text-anchor="middle" x="68" y="-193.1" font-family="Courier,monospace" font-size="11.00">redis</text>
</a>
</g>
<!-- \\db -->
<g id="node7" class="node"><title>\\db</title>
<a xlink:href="core.classes.db.class.html" xlink:title="db" target="_parent">
<polygon fill="none" stroke="black" points="95,-160 41,-160 41,-124 95,-124 95,-160"/>
<text text-anchor="middle" x="68" y="-139.1" font-family="Courier,monospace" font-size="11.00">db</text>
</a>
</g>
<!-- \\user_db -->
<g id="node8" class="node"><title>\\user_db</title>
<a xlink:href="core.classes.user_db.class.html" xlink:title="user_db" target="_parent">
<polygon fill="none" stroke="black" points="100,-106 36,-106 36,-70 100,-70 100,-106"/>
<text text-anchor="middle" x="68" y="-85.1" font-family="Courier,monospace" font-size="11.00">user_db</text>
</a>
</g>
<!-- \\logger -->
<g id="node9" class="node"><title>\\logger</title>
<a xlink:href="core.classes.logger.class.html" xlink:title="logger" target="_parent">
<polygon fill="none" stroke="black" points="96,-52 40,-52 40,-16 96,-16 96,-52"/>
<text text-anchor="middle" x="68" y="-31.1" font-family="Courier,monospace" font-size="11.00">logger</text>
</a>
</g>
</g>
</svg>
